HIERARCHY
ROOT Hips
{
  OFFSET 13.6774 106.653 -34.4427
  CHANNELS 6 Xposition Yposition Zposition Zrotation Xrotation Yrotation
  JOINT ToSpine
  {
    OFFSET -2.69724 7.43032 -0.144315
    CHANNELS 3 Zrotation Xrotation Yrotation
    JOINT Spine
    {
      OFFSET -0.0310711 10.7595 1.96963
      CHANNELS 3 Zrotation Xrotation Yrotation
      JOINT Spine1
      {
        OFFSET 19.9056 3.91189 0.764692
        CHANNELS 3 Zrotation Xrotation Yrotation
        JOINT Neck
        {
          OFFSET 25.9749 7.03908 -0.130764
          CHANNELS 3 Zrotation Xrotation Yrotation
          JOINT Head
          {
            OFFSET 9.52751 0.295786 -0.907742
            CHANNELS 3 Zrotation Xrotation Yrotation
            End Site
            {
              OFFSET 16.4037 0.713936 2.7358
            }
          }
        }
        JOINT LeftShoulder
        {
          OFFSET 17.7449 4.33886 11.7777
          CHANNELS 3 Zrotation Xrotation Yrotation
          JOINT LeftArm
          {
            OFFSET 0.911315 1.27913 9.80584
            CHANNELS 3 Zrotation Xrotation Yrotation
            JOINT LeftForeArm
            {
              OFFSET 28.6126 1.18197 -3.53199
              CHANNELS 3 Zrotation Xrotation Yrotation
              JOINT LeftHand
              {
                OFFSET 27.5088 0.0218783 0.327423
                CHANNELS 3 Zrotation Xrotation Yrotation
                End Site
                {
                  OFFSET 18.6038 -0.000155887 0.382096
                }
              }
            }
          }
        }
        JOINT RightShoulder
        {
          OFFSET 17.1009 2.89543 -12.2328
          CHANNELS 3 Zrotation Xrotation Yrotation
          JOINT RightArm
          {
            OFFSET 1.4228 0.178766 -10.211
            CHANNELS 3 Zrotation Xrotation Yrotation
            JOINT RightForeArm
            {
              OFFSET 28.733 1.87905 2.64907
              CHANNELS 3 Zrotation Xrotation Yrotation
              JOINT RightHand
              {
                OFFSET 27.4588 0.290562 -0.101845
                CHANNELS 3 Zrotation Xrotation Yrotation
                End Site
                {
                  OFFSET 17.8396 -0.255518 -0.000602873
                }
              }
            }
          }
        }
      }
    }
  }
  JOINT LeftUpLeg
  {
    OFFSET -5.61296 -2.22332 -10.2353
    CHANNELS 3 Zrotation Xrotation Yrotation
    JOINT LeftLeg
    {
      OFFSET 2.56703 -44.7417 -7.93097
      CHANNELS 3 Zrotation Xrotation Yrotation
      JOINT LeftFoot
      {
        OFFSET 3.16933 -46.5642 -3.96578
        CHANNELS 3 Zrotation Xrotation Yrotation
        JOINT LeftToeBase
        {
          OFFSET 0.346054 -6.02161 12.8035
          CHANNELS 3 Zrotation Xrotation Yrotation
          End Site
          {
            OFFSET 0.134235 -1.35082 5.13018
          }
        }
      }
    }
  }
  JOINT RightUpLeg
  {
    OFFSET -5.7928 -1.72406 10.6446
    CHANNELS 3 Zrotation Xrotation Yrotation
    JOINT RightLeg
    {
      OFFSET -2.57161 -44.7178 -7.85259
      CHANNELS 3 Zrotation Xrotation Yrotation
      JOINT RightFoot
      {
        OFFSET -3.10148 -46.5936 -4.03391
        CHANNELS 3 Zrotation Xrotation Yrotation
        JOINT RightToeBase
        {
          OFFSET -0.0828122 -6.13587 12.8035
          CHANNELS 3 Zrotation Xrotation Yrotation
          End Site
          {
            OFFSET -0.131328 -1.35082 5.13018
          }
        }
      }
    }
  }
}
MOTION
Frames: 17
Frame Time: 0.03333333333333333
0.0000 93.1000 0.0000 29.0426 50.7973 44.6353 -71.1378 0.1174 88.0569 150.6267 67.2207 -58.6022 3.0933 27.3329 1.5803 -163.4521 24.1049 168.6951 -147.8087 61.4348 170.0684 1.0593 -3.7164 -19.0584 -94.7067 35.8498 -57.6284 -12.7593 52.1097 3.5466 15.0975 -0.2208 -1.2364 -0.2029 1.3446 14.3318 -88.7346 -49.6812 123.4727 10.4781 -3.4136 73.7129 11.0372 0.5227 3.9200 1.9915 -2.8136 82.4241 -162.7947 73.4263 154.0666 5.5658 1.6665 -1.7637 -9.2399 -37.0768 15.1784 -54.7458 7.0641 84.8362 5.6778 56.3828 17.2762 -10.5252 -14.0173 1.9410 8.9235 -14.5722 -16.7514 
0.0000 93.1000 0.0000 29.5491 48.5446 40.0027 -71.0626 0.0001 88.0872 150.8362 68.6291 -62.4731 2.4203 28.8018 -2.7366 -161.4196 25.7619 168.1521 -150.8551 63.0887 173.0113 1.4366 -4.5736 -19.3378 -93.6407 37.1023 -60.8835 -15.0261 51.1694 5.8405 13.7293 -0.8622 -1.4157 -0.1410 0.4666 13.0989 -86.1080 -47.4765 122.6603 13.7253 -2.5091 80.0106 10.3238 0.1131 5.1711 3.9692 -1.1910 90.2141 -86.7074 84.8628 77.4973 4.4868 1.0976 -1.2224 -9.3907 -38.6135 14.5863 -63.2651 4.0185 92.0986 3.0602 45.0625 11.3751 -8.1165 -12.3443 1.1700 -3.4232 5.2493 -4.6674 
0.0000 93.1000 0.0000 26.6699 48.9837 41.8837 -70.9515 0.0656 88.1937 142.9567 69.9162 -54.6944 6.0048 28.4945 -6.6628 -158.0490 25.6442 168.1153 -149.8200 63.2905 172.0978 0.8577 -4.0941 -22.4935 -92.4789 36.6576 -69.9404 -14.1700 48.1842 6.2048 12.5246 -0.5456 -2.9091 -0.8414 -0.1444 15.5822 -78.6158 -45.9279 123.6272 15.3555 -3.5475 78.2363 8.7630 0.8029 5.4817 -0.1510 -0.7565 95.9668 -13.1269 75.2634 0.8322 3.1419 3.0074 -1.3526 -8.6139 -39.5661 15.8594 -67.0939 3.0619 91.8946 1.4661 42.0928 4.9820 -1.8899 0.2879 -0.1420 -40.6030 40.8398 37.4795 
0.0000 93.1000 0.0000 25.8409 51.5054 44.2753 -70.9550 -0.0511 88.2065 136.1696 69.5551 -48.9489 9.7933 26.3371 -8.2098 -156.7757 24.7265 166.5850 -150.2841 62.7366 170.9002 1.6365 -3.2131 -26.5225 -88.0162 37.0697 -85.1371 -9.6607 38.6209 -1.6035 13.0491 -1.1608 -3.0228 -0.9727 0.2588 19.9453 -71.5859 -44.6391 122.6284 12.8745 -5.2584 68.4653 7.6165 0.1548 5.5136 -7.9103 0.5781 99.2463 -10.4110 70.8552 -3.6994 2.5357 2.3104 -0.6881 -8.5143 -36.7427 17.8591 -64.2959 6.2825 90.5548 5.2104 63.3228 0.6638 -3.6655 0.1641 -0.5467 -45.8910 50.4441 38.9080 
0.0000 93.1000 0.0000 27.0116 56.2465 41.7422 -71.0292 -0.0553 88.1016 133.0674 68.4088 -50.8400 12.1010 23.7451 -7.0487 -154.1097 23.3007 166.3467 -150.8034 61.7661 173.4738 1.8134 -1.9298 -29.2823 -71.9631 33.6609 -108.0596 -1.8721 22.5259 -12.7398 14.9927 -1.0068 -3.2833 -0.5706 0.7294 24.2739 -65.2144 -44.7622 118.9861 13.5340 -8.5809 54.6936 5.8132 0.2074 3.7865 -20.0916 -2.0001 100.7929 -9.3304 67.8462 -7.2497 4.3832 -1.5682 -1.3285 -7.9872 -29.8851 12.8806 -57.3213 6.5141 88.1324 69.1773 85.3655 -67.3556 -3.7505 1.2095 -1.0805 -21.4215 47.4000 5.3968 
0.0000 93.1000 0.0000 23.9824 59.4886 40.8429 -71.0746 -0.1130 88.0905 130.0120 66.8149 -52.3464 10.8909 21.8080 -7.0220 -153.2741 24.1089 167.0383 -151.3395 62.6412 175.5912 1.8917 -1.4508 -30.3659 -60.1366 24.7323 -127.7405 4.0398 5.9770 -21.7975 16.4776 -0.9678 -3.3829 -0.2830 -0.0291 29.1439 -60.3749 -46.5319 112.7635 13.6949 -11.7798 41.8191 5.5799 0.1984 1.5688 -30.8356 -9.7893 99.4373 -5.8888 61.8782 -10.1146 6.1954 6.1765 -0.9908 -10.3578 -46.3904 9.7085 -45.6531 3.1821 87.9923 167.7072 67.9180 -166.1447 -4.9681 -1.3197 -0.3775 -7.4292 40.1263 -9.0118 
0.0000 93.1000 0.0000 12.0114 61.0215 52.8247 -71.1329 -0.0821 88.1432 122.6792 65.5316 -48.4541 7.3997 20.2608 -5.6118 -154.2679 24.7707 166.9700 -154.9860 63.6171 177.5397 1.7525 -2.0082 -28.4225 -71.0506 28.8839 -139.7888 8.3735 8.6514 -32.9322 17.3647 -1.0668 -4.6618 -0.2312 0.0200 30.4577 -62.5380 -52.8320 96.8018 15.7657 -16.5903 40.4368 5.7466 0.2086 1.0711 -36.8144 -17.0183 91.1852 -5.7177 58.5373 -7.2546 8.2950 2.1455 -1.5669 -10.9986 -47.1454 9.9717 -24.4414 0.4399 87.7778 170.5246 52.7619 -171.1553 -6.9770 -1.7119 0.3025 4.4430 20.0655 -21.4038 
0.0000 93.1000 0.0000 8.0521 61.1895 57.4241 -71.1552 -0.0068 88.0884 119.8807 65.4512 -44.9565 3.4713 18.7727 -2.9811 -156.4031 24.3253 167.4530 -157.3570 63.4078 -181.9544 1.5190 -2.2557 -24.7750 -76.1855 34.9132 -146.5901 15.7459 10.4675 -50.5867 17.5685 -1.3979 -6.4471 -0.5672 1.7232 29.4122 -66.6048 -59.1777 80.8867 16.3947 -14.8730 41.8143 5.2361 0.2099 0.8168 -48.2154 -16.8404 84.1964 -4.8225 51.5125 -8.8885 7.8023 -0.9884 -1.5857 -10.4603 -46.9234 12.4796 -7.3149 0.1171 91.9363 170.3275 52.5130 -170.9847 -8.0970 -3.0865 0.6940 7.2647 4.4384 -22.8994 
0.0000 93.1000 0.0000 10.7058 58.3409 61.7380 -71.1196 -0.1397 88.1902 113.6340 64.7205 -35.9750 2.3586 17.6134 0.0466 -157.4771 22.6545 170.1465 -156.0430 61.8752 176.1730 1.9866 -1.9281 -22.7863 -78.9146 37.4345 -145.5387 22.2194 8.7349 -66.9281 19.8302 -1.8931 -6.3944 -0.5796 1.2370 25.2440 -62.6736 -63.8615 76.8393 11.2377 -11.1381 41.6104 4.9985 -0.3015 2.0060 -58.2081 -9.0385 82.2619 -1.7780 43.4476 -16.0132 4.8138 -4.2558 -0.8288 -7.8942 -36.1267 16.6348 2.9807 0.9691 91.0206 168.1745 66.2005 -168.1344 -9.1192 -4.6105 0.9422 8.7172 -7.0627 -20.6959 
0.0000 93.1000 0.0000 17.8961 57.4954 58.3520 -71.0983 -0.1053 88.1658 117.6758 63.7789 -37.1969 2.5583 17.1113 2.5998 -158.3744 20.4805 169.4005 -152.9216 59.1991 172.8457 2.0798 -1.5667 -22.4226 -78.0625 38.0831 -138.6055 25.4058 7.1279 -74.8528 21.2072 -1.9756 -6.2414 -0.8982 2.1242 24.9017 -59.2803 -63.7741 74.7505 7.0886 -5.6945 39.9238 4.3190 -0.3634 2.5199 -68.8171 1.4865 92.2974 4.4479 36.7064 -26.4380 -1.2518 -0.9433 0.5255 -5.6444 -10.4048 10.4295 2.9368 2.6008 87.0671 82.2767 85.2082 -82.1297 -8.5106 -5.6283 0.6191 9.3804 -13.3806 -19.6281 
0.0000 93.1000 0.0000 25.3608 56.4678 52.0892 -71.1101 -0.0511 88.2297 118.8078 63.1463 -36.3526 5.3646 16.9320 2.6182 -159.4192 18.8955 168.0937 -149.9688 57.0573 171.2320 2.0521 -1.7679 -21.7283 -77.0294 39.2320 -128.4828 21.8404 7.9209 -67.9390 19.4361 -1.8806 -5.7109 -0.9825 2.9764 27.7522 -61.2918 -61.8299 75.6871 2.0946 0.4479 38.0522 3.9097 -0.3981 1.7293 -73.2864 0.1096 78.4557 -4.0087 44.1677 -10.3096 1.2128 6.1511 0.4583 -5.9634 -11.9919 17.3216 -1.7686 3.2924 83.6372 4.9128 65.1390 -1.9693 -8.3391 -0.8999 0.4796 9.1738 -18.7457 -16.4509 
0.0000 93.1000 0.0000 32.1963 56.3126 47.0617 -71.0588 -0.0169 88.1974 120.7613 63.1298 -36.9592 10.2868 17.1694 0.9549 -159.3098 18.6609 169.3275 -151.1583 55.5877 170.3959 1.8683 -2.2044 -23.4169 -73.7946 39.1024 -125.2747 15.3535 11.1697 -47.6750 15.3874 -1.4843 -5.1247 -0.6845 2.1324 29.6375 -66.5140 -57.4681 75.7292 -0.0121 3.2163 40.5979 3.1691 -0.0011 2.0919 -69.2561 -3.8068 76.1962 -9.7562 69.7907 -2.0702 -0.7901 8.8146 0.6199 -6.3748 -19.8493 16.8268 -6.9809 0.0948 79.5413 2.6613 55.8042 1.8302 -5.2431 -1.8077 -0.0482 5.3574 -2.4436 -13.1898 
0.0000 93.1000 0.0000 43.2508 55.4231 40.0760 -71.1000 0.0000 88.1245 124.6640 63.6031 -37.0850 13.7209 17.8340 -0.0822 -158.4058 17.9239 171.9246 -147.8458 54.4185 171.2359 2.0877 -1.1753 -26.6851 -62.6010 34.5349 -127.2740 7.3460 11.8047 -25.2350 15.3761 -1.2121 -3.9654 -0.6210 0.4820 30.1648 -70.4735 -54.5118 79.9952 0.0094 1.8517 42.9850 3.1455 -0.0269 2.9820 -64.4965 -1.8457 79.3873 -142.6176 81.5674 131.1792 -0.5488 6.6490 0.1545 -6.0987 -14.6727 12.9247 -13.9506 3.2430 72.9966 3.6392 58.7050 3.5405 -5.7849 -1.9014 -0.4293 5.2905 4.2246 -18.6837 
0.0000 93.1000 0.0000 51.1429 52.0995 36.1621 -71.1238 0.0562 88.0818 129.8804 63.3777 -39.8979 13.4374 19.2475 0.2987 -159.3403 16.6862 172.0217 -145.3710 52.7768 168.9938 2.1063 0.2854 -29.0006 -80.8667 41.3779 -106.1844 1.2507 38.1507 -12.4674 14.9453 -0.7516 -2.2639 -0.5055 -0.5335 30.9259 -73.6473 -50.8748 86.5817 2.8148 -0.8479 44.5442 4.2844 0.0042 2.2892 -52.9823 2.8374 80.2383 -168.1499 61.0393 157.3510 1.8962 6.6292 -0.5001 -6.0680 -17.8361 15.9187 -20.7094 9.1517 69.7553 6.0616 65.0095 4.0342 -5.8604 -6.4853 -0.0182 8.3953 -0.5907 -23.9753 
0.0000 93.1000 0.0000 53.1387 48.3960 38.0728 -71.1248 0.0894 88.1000 132.8189 64.0762 -37.8746 11.4994 20.0420 2.1119 -161.5371 15.7813 172.7864 -147.8026 52.4294 169.8110 1.8798 0.6235 -31.5888 -86.9713 40.2808 -91.1345 -5.3266 50.0500 -4.8893 15.0700 -0.3607 -1.5063 -0.2631 -1.0132 28.9670 -82.2877 -50.4146 87.6034 4.2025 -1.8765 50.0691 4.7437 0.1128 1.8798 -35.4082 4.9386 73.7827 -171.1137 47.6782 160.1346 3.5723 5.4391 -1.1340 -6.4747 -18.8705 14.9892 -26.9012 14.8047 68.6743 7.7982 66.6541 4.5029 -6.7605 -6.1841 0.3954 11.2256 -20.5125 -22.9766 
0.0000 93.1000 0.0000 53.1147 44.3302 38.2706 -71.1386 0.0421 88.1304 132.8360 66.2930 -35.9729 7.7698 21.8446 4.0547 -161.5549 16.7012 174.8092 -149.2249 53.4275 170.8211 2.1323 0.5575 -31.6254 -80.5776 40.2212 -86.8762 -13.2221 56.6011 1.3876 19.5946 -0.4880 -0.6818 -0.1902 -1.1043 25.7388 -83.4144 -50.2982 90.6506 3.9113 -1.5899 58.1187 4.9956 -0.0871 3.5139 -18.0545 1.9766 70.6668 -170.4931 47.9354 161.5905 4.0272 5.6837 -1.1380 -6.3686 -19.5379 11.5709 -36.8860 17.2065 71.5345 6.8892 65.9461 9.0129 -9.2616 -8.8932 0.8294 12.2984 -28.8252 -21.4426 
0.0000 93.1000 0.0000 55.0574 43.3691 34.1038 -71.1410 0.0332 88.1084 130.8362 68.5445 -33.8206 3.8145 23.0866 3.8301 -156.4695 16.8638 171.5291 -147.1819 53.6947 168.0569 2.0091 0.4602 -28.6043 -84.0462 41.3153 -77.0207 -17.1899 59.0851 4.4795 19.6540 -0.4595 0.0039 -0.2367 -0.8178 24.9478 -78.4623 -50.0017 94.6747 5.1651 -1.7697 66.2409 5.4845 -0.1206 4.1607 -9.2630 1.2452 72.5419 -168.3846 60.6098 160.4746 4.8007 3.8675 -1.4279 -7.0746 -21.8996 13.5301 -51.9723 18.0721 78.6416 4.8073 58.2750 10.4614 -10.8230 -13.9450 1.2668 11.2808 -21.7616 -19.2870 
